# xmcd
#
# Track frame offsets:
#  150
#  11508
#  24098
#  37729
#  51151
#  63788
#  77062
#  90590
#  104866
#  120646
#  134822
#  148011
#  162848
#  176123
#  191666
#  205501
#  220164
#  232750
#  247022
#  259504
#  271989
#  286142
#
# Disc length: 3968 seconds
#
# Revision: 0
# Processed by: cddbd v1.5.1PL0 Copyright (c) Steve Scherf et al.
# Submitted via: Collectorz.com_Music_Collector 6.9
#
DISCID=2f0f7e16
DTITLE=Sonny Boy Williamson - Early In The Morning
DYEAR=2002
DGENRE=Blues -  Blues Harmonica
TTITLE0=Worried Me Blues
TTITLE1=Black Gal Blues
TTITLE2=Frigidaire Blues
TTITLE3=Suzanna Blues
TTITLE4=Early In The Morning
TTITLE5=Sugar Mama Blues
TTITLE6=Skinny Woman
TTITLE7=My Little Cornelius
TTITLE8=Decoration Blues
TTITLE9=You Can Lead Me
TTITLE10=Miss Louisa Blues
TTITLE11=Sunnyland
TTITLE12=I'm Tired trucking My Blues Away
TTITLE13=Beauty Parlor
TTITLE14=My Baby I've Been Your Slave
TTITLE15=Doggin' My Love Around
TTITLE16=Little Low Woman Blues
TTITLE17=Sugar Mama Blues No. 2
TTITLE18=Good Gal Blues
TTITLE19=I'm Not Pleasing You
TTITLE20=Honey Bee Blues
TTITLE21=Mellow Chick Swing
EXTD=
EXTT0=
EXTT1=
EXTT2=
EXTT3=
EXTT4=
EXTT5=
EXTT6=
EXTT7=
EXTT8=
EXTT9=
EXTT10=
EXTT11=
EXTT12=
EXTT13=
EXTT14=
EXTT15=
EXTT16=
EXTT17=
EXTT18=
EXTT19=
EXTT20=
EXTT21=
PLAYORDER=
